<?xml version="1.0" standalone="no"?>
<!DOCTYPE svg PUBLIC "-//W3C//DTD SVG 1.1//EN" "http://www.w3.org/Graphics/SVG/1.1/DTD/svg11.dtd" >
<svg xmlns="http://www.w3.org/2000/svg">
<metadata>
Created by FontForge 20120731 at Wed Nov 30 16:21:27 2016
 By admin
</metadata>
<defs>
<font id="iconfont" horiz-adv-x="1024" >
  <font-face 
    font-family="iconfont"
    font-weight="500"
    font-stretch="normal"
    units-per-em="1024"
    panose-1="2 0 6 3 0 0 0 0 0 0"
    ascent="896"
    descent="-128"
    x-height="792"
    bbox="44 -77 1366 844"
    underline-thickness="0"
    underline-position="0"
    unicode-range="U+0078-EEBC"
  />
<missing-glyph 
 />
    <glyph glyph-name=".notdef" 
 />
    <glyph glyph-name=".notdef" 
 />
    <glyph glyph-name=".null" horiz-adv-x="0" 
 />
    <glyph glyph-name="nonmarkingreturn" horiz-adv-x="341" 
 />
    <glyph glyph-name="x" unicode="x" horiz-adv-x="1001" 
d="M281 543q-27 -1 -53 -1h-83q-18 0 -36.5 -6t-32.5 -18.5t-23 -32t-9 -45.5v-76h912v41q0 16 -0.5 30t-0.5 18q0 13 -5 29t-17 29.5t-31.5 22.5t-49.5 9h-133v-97h-438v97zM955 310v-52q0 -23 0.5 -52t0.5 -58t-10.5 -47.5t-26 -30t-33 -16t-31.5 -4.5q-14 -1 -29.5 -0.5
t-29.5 0.5h-32l-45 128h-439l-44 -128h-29h-34q-20 0 -45 1q-25 0 -41 9.5t-25.5 23t-13.5 29.5t-4 30v167h911zM163 247q-12 0 -21 -8.5t-9 -21.5t9 -21.5t21 -8.5q13 0 22 8.5t9 21.5t-9 21.5t-22 8.5zM316 123q-8 -26 -14 -48q-5 -19 -10.5 -37t-7.5 -25t-3 -15t1 -14.5
t9.5 -10.5t21.5 -4h37h67h81h80h64h36q23 0 34 12t2 38q-5 13 -9.5 30.5t-9.5 34.5q-5 19 -11 39h-368zM336 498v228q0 11 2.5 23t10 21.5t20.5 15.5t34 6h188q31 0 51.5 -14.5t20.5 -52.5v-227h-327z" />
    <glyph glyph-name="zhendongjiance" unicode="&#xe68f;" 
d="M210 3l-71 87l227 182l-282 225l337 268l70 -87l-226 -181l281 -225zM603 3l-70 87l226 182l-281 225l336 268l71 -87l-227 -181l282 -225z" />
    <glyph glyph-name="shishishuju" unicode="&#xe6bf;" 
d="M767 720q-105 45 -257 45t-257 -45q-52 -23 -79.5 -52.5t-27.5 -62.5v-445q0 -33 27.5 -62.5t79.5 -52.5q105 -45 257 -45t257 45q52 23 79.5 52.5t27.5 62.5v445q0 33 -27.5 62.5t-79.5 52.5zM726 524q-96 -33 -216 -33t-216 33q-100 35 -100 81t100 80q96 33 216 33
t216 -33q100 -34 100 -80t-100 -81zM726 388q-96 -33 -216 -33t-216 33q-100 34 -100 80v55q47 -36 129 -56q85 -22 187 -22t188 22q81 20 128 56v-55q0 -46 -100 -80zM726 234q-96 -33 -216 -33t-216 33q-100 34 -100 80v73q47 -36 129 -57q85 -22 187 -22t188 22
q81 21 128 57v-73q0 -46 -100 -80zM510 47q-120 0 -216 33q-100 34 -100 80v73q47 -36 129 -57q85 -22 187 -22t188 22q81 21 128 57v-73q0 -46 -100 -80q-96 -33 -216 -33z" />
    <glyph glyph-name="mima" unicode="&#xe633;" 
d="M784 442h-75v136q0 83 -52.5 141.5t-127.5 58.5h-34q-75 0 -127.5 -58.5t-52.5 -141.5v-136h-75q-15 0 -25.5 -11.5t-10.5 -28.5v-371q0 -17 10.5 -28.5t25.5 -11.5h544q15 0 25.5 11.5t10.5 28.5v371q0 17 -10.5 28.5t-25.5 11.5zM512 61q-28 0 -48 22t-20 53
q0 41 31 63v131q0 15 10.5 26t25.5 11t25.5 -11t10.5 -26v-129q33 -22 33 -65q0 -31 -20 -53t-48 -22v0zM651 442h-272v121q0 56 36.5 95t88.5 39h23q51 0 87.5 -39t36.5 -95v-121z" />
    <glyph glyph-name="bumenguanli" unicode="&#xe690;" 
d="M833 554v201h-642v-201h-50v-541h149v541h-50v151h247v-151h-49v-541h148v541h-49v151h247v-151h-50v-541h149v541h-50z" />
    <glyph glyph-name="shouye" unicode="&#xe624;" 
d="M512 742l277 -277v-469h37v432l52 -52l26 26l-392 392l-392 -392l26 -26l52 52v-432h591v37h-148v296h-258v-296h-148v432zM420 33v259h184v-259h-184z" />
    <glyph glyph-name="chuanganqi" unicode="&#xe612;" 
d="M833 723l-43 -44q108 -122 108 -287.5t-108 -289.5l44 -45q82 86 111.5 209.5t-0.5 247t-112 209.5zM731 620l-45 -46q66 -79 66 -183.5t-65 -183.5l44 -46q84 99 84.5 230t-84.5 229zM232 679l-43 44q-82 -86 -112 -209.5t-0.5 -247t111.5 -209.5l44 45
q-108 124 -108 289.5t108 287.5zM291 620q-84 -98 -84 -229t84 -230l44 46q-65 79 -65 183.5t66 183.5zM511 536q-60 0 -102.5 -43t-42.5 -103.5t42.5 -103.5t102.5 -43t102 43t42 103.5t-42 103.5t-102 43z" />
    <glyph glyph-name="yuzhipeizhi" unicode="&#xe6ec;" 
d="M424 733h-61q-30 0 -43 -19t-13 -38v-618h169v618q0 31 -16.5 44t-35.5 13zM194 564h-56q-18 -1 -29 -5t-16.5 -11.5t-7 -14t-2.5 -20.5q-1 -3 -1 -5v-450h171l-2 450q3 56 -57 56zM644 339h-56q-28 0 -42 -19t-14 -37v-225h169v225q0 27 -15.5 41.5t-41.5 14.5zM869 170
h-56q-20 0 -38.5 -13.5t-17.5 -42.5l-3 -56h172v56q-3 28 -16 42t-41 14z" />
    <glyph glyph-name="qiaoliang" unicode="&#xe629;" 
d="M879 616h-734q-12 0 -20.5 -8t-8.5 -19v-382q0 -12 8.5 -20t20 -8t20 8t8.5 20v354h678v-354q0 -12 8.5 -20t20 -8t20 8t8.5 20v382q0 11 -8.5 19t-20.5 8zM512 425q-105 0 -179.5 -72t-74.5 -174h56q0 80 58 135.5t140 55.5t140 -55.5t58 -135.5h56q0 102 -74.5 174
t-179.5 72z" />
    <glyph glyph-name="xitongguanli" unicode="&#xe632;" horiz-adv-x="1028" 
d="M514.5 528q-59.5 0 -102 -42.5t-42.5 -101.5t42.5 -101.5t102 -42.5t101.5 42.5t42 101.5t-42 101.5t-101.5 42.5zM514.5 273q-45.5 0 -78 32.5t-32.5 78.5t32.5 78.5t78 32.5t78 -32.5t32.5 -78.5t-32.5 -78.5t-78 -32.5zM849.5 439q-12.5 12 -29.5 12h-31
q-5 0 -10.5 4.5t-6.5 10.5l-19 44q-6 11 3 21l22 21q13 13 12.5 30.5t-12.5 29.5l-36 36q-12 12 -30 12t-29 -12l-22 -22q-3 -3 -10 -4t-11 1q-1 0 -2 1l-44 18q-4 1 -8 6.5t-4 10.5v31q0 17 -12.5 29.5t-29.5 12.5h-51q-18 0 -30 -12.5t-12 -29.5v-31q0 -5 -4 -10.5
t-10 -7.5l-43 -17l-1 -1q-5 -2 -11.5 -1t-9.5 4l-22 22q-12 12 -30 12t-29 -12l-37 -36q-12 -13 -12 -30t12 -30l22 -21q9 -10 3 -21v-2l-19 -44q-1 -5 -6.5 -9t-10.5 -4h-30q-18 0 -30 -12t-12 -30v-50q0 -18 12 -30t30 -12h30q5 -1 10.5 -5t7.5 -10l18 -44q6 -11 -3 -21
l-22 -21q-12 -13 -12 -30.5t12 -29.5l37 -36q11 -12 29 -12t30 12l22 22q3 3 9.5 4t10.5 -1q1 -1 2 -1l44 -18q5 -1 9 -6.5t4 -10.5v-31q0 -17 12 -29.5t30 -12.5h51q17 0 29.5 12.5t12.5 29.5v31q0 5 4 10.5t10 7.5l43 17l1 1q4 2 11 1t10 -4l22 -22q12 -12 29.5 -12
t29.5 12l36 36q12 12 12 29.5t-12 30.5l-22 21q-9 9 -2 23l18 44q2 5 7 8.5t10 3.5h31q17 0 29.5 12.5t12.5 29.5v51q0 18 -12.5 30zM829 358q0 -8 -9 -8h-31q-15 0 -29.5 -10.5t-18.5 -24.5l-17 -41q-7 -14 -4.5 -31.5t13.5 -28.5l22 -22q2 -2 2 -6t-2 -6l-36 -36
q-3 -3 -6.5 -3t-6.5 3l-22 21q-10 11 -27.5 13.5t-31.5 -4.5l-40 -16q-16 -5 -26 -19t-10 -30v-31q0 -9 -9 -9h-51q-9 0 -9 9v31q0 16 -10 30t-25 18l-42 17q-13 7 -30.5 4.5t-28.5 -13.5l-22 -21q-2 -3 -5.5 -3t-6.5 3l-36 36q-6 6 0 12l22 22q11 11 13.5 28t-4.5 30
l-17 42q-5 15 -19 25.5t-30 10.5h-30q-9 0 -9 9v50q0 9 9 9h30q16 0 30 10.5t19 24.5l17 42q7 14 4.5 31t-13.5 28l-22 22q-3 2 -3 6t3 6l36 36q3 3 6.5 3t6.5 -3l21 -21q11 -11 28.5 -14t30.5 4l41 17q15 5 25.5 19t10.5 30v31q0 9 9 9h51q9 0 9 -9v-31q0 -16 10 -30
t24 -18l42 -18q14 -7 31.5 -4t27.5 14l22 21q3 3 6.5 3t6.5 -3l36 -36q2 -2 2 -6t-2 -6l-22 -22q-11 -11 -14 -28.5t4 -29.5l18 -42q4 -15 18.5 -25.5t29.5 -10.5h31q4 0 6.5 -2.5t2.5 -6.5v-51z" />
    <glyph glyph-name="gaojingguanli" unicode="&#xe6d4;" 
d="M533 730h-1q0 10 -7 16.5t-17 6.5t-17 -6.5t-7 -16.5v-60h49v60v0zM824 534q8 4 10.5 13.5t-2.5 17.5q-7 11 -19 12q-9 0 -13 -2l-41 -31l24 -40zM336 619l42 23l-32 52q-7 11 -19 12q-8 0 -14 -3q-8 -5 -10.5 -14t2.5 -18zM713 671q5 9 2.5 18t-11.5 14q-10 5 -19.5 2
t-14.5 -10l-31 -53l42 -23zM258 544l-55 30q-3 3 -8 3q-16 1 -24 -12q-5 -9 -3 -18t11 -14l55 -30zM742 374q0 87 -67 149t-162 62t-162 -62t-67 -149v-247h458v247v0zM694 175h-362v209q0 62 57 107.5t124 45.5t124 -45.5t57 -107.5v-209zM826 79h-626q-5 0 -8.5 -3.5
t-3.5 -8.5v-24q0 -5 3.5 -8.5t8.5 -3.5h626q5 0 8.5 3.5t3.5 8.5v24q0 5 -3.5 8.5t-8.5 3.5v0v0zM603 462q-12 4 -22 -3q-8 -5 -11 -13l-30 -115l-85 51q-8 0 -15 -4q-11 -7 -12 -20l-46 -107q-1 -11 6 -18.5t18 -8.5q8 -1 16 4q11 7 12 20l28 78l96 -47q8 0 14 5q8 4 11 13
l36 133q4 10 -1 19.5t-15 12.5v0v0zM603 462z" />
    <glyph glyph-name="zuzhijigou" unicode="&#xe60b;" 
d="M810 179q-10 0 -21 -3l-254 254v161q31 8 51 33.5t20 57.5q0 39 -27.5 67t-66.5 28t-67 -28t-28 -67q0 -32 20 -57.5t51 -33.5v-161l-254 -254q-10 3 -21 3q-39 0 -67 -27.5t-28 -67t28 -67t67 -27.5t66.5 27.5t27.5 67.5t-29 68l210 210v-187q-31 -8 -51 -33.5
t-20 -57.5q0 -40 28 -67.5t67 -27.5t66.5 27.5t27.5 67.5q0 32 -20 57.5t-51 33.5v187l210 -210q-29 -28 -29 -68t27.5 -67.5t67 -27.5t67 27.5t27.5 67t-27.5 67t-67.5 27.5v0zM810 179z" />
    <glyph glyph-name="rizhiguanli" unicode="&#xe616;" 
d="M777 658h-40v-56h25q36 0 61.5 -25.5t25.5 -61.5v-443q0 -36 -25.5 -61.5t-61.5 -25.5h-501q-36 0 -61.5 25.5t-25.5 61.5v443q0 36 25.5 61.5t61.5 25.5h26v56h-41q-53 0 -90.5 -37.5t-37.5 -90.5v-475q0 -53 37.5 -90.5t90.5 -37.5h531q53 0 90.5 37.5t37.5 90.5v475
q0 53 -37.5 90.5t-90.5 37.5zM624 601v113h-225v-113h-56v-56h337v56h-56zM456 601v57h112v-57h-112zM287 433h225v-57h-225v57zM287 320h450v-56h-450v56zM287 208h450v-56h-450v56z" />
    <glyph glyph-name="yonghuguanli" unicode="&#xe6ad;" 
d="M529 304q10 -2 19 4.5t11 17t-4.5 19.5t-16.5 10q-31 6 -59 6q-168 2 -268 -96q-50 -49 -77 -119t-27 -151q0 -11 7.5 -18.5t18.5 -7.5t18.5 7.5t7.5 18.5q0 146 89 233q85 84 230 81q24 0 51 -5zM798 95q-11 -2 -17 -10.5t-4 -19.5q6 -34 6 -70q0 -11 7.5 -18.5
t18.5 -7.5t18.5 7.5t7.5 18.5q0 41 -7 79q-2 11 -11 17t-19 4zM458.5 382q84.5 0 144.5 60t60 145t-60 145t-144.5 60t-145 -60t-60.5 -145t60.5 -145t145 -60zM458.5 740q63.5 0 108 -45t44.5 -108t-44.5 -108t-108 -45t-108.5 45t-45 108t45 108t108.5 45zM506.5 100.5
q-8.5 -8.5 -8.5 -21t8.5 -21.5t21 -9t21.5 9t9 21.5t-9 21t-21.5 8.5t-21 -8.5zM899 366v2v0q-1 0 -1 0.5v0.5q-3 5 -5 6v1h-0.5t-1 0.5l-0.5 0.5q-8 6 -17 6v0q-5 0 -10 -2v-1q-1 0 -2 -0.5t-1 -1.5q-4 -2 -4 -3l-71 -70l-31 31l71 71q7 8 7 18.5t-7 18.5q-2 1 -7 4
l-0.5 0.5l-0.5 0.5h-1v1v0q-49 23 -102 13.5t-91 -47.5q-36 -35 -46.5 -83.5t6.5 -92.5l-46 -46q-53 4 -90 -32q-33 -33 -33 -80.5t33.5 -81t81 -33.5t80.5 33q36 36 32 89l47 46q28 -10 55 -10q71 0 121 50q37 37 46.5 89.5t-12.5 101.5zM598 117h-0.5h-0.5q-3 -4 -5 -8v-1
q-2 -4 -2 -9v0v-2.5v-2.5q7 -33 -17 -57q-18 -18 -44 -18t-44 18t-18 44t18 44q24 24 58 17h1h1.5t1.5 -0.5t1.5 -0.5t1 0.5l0.5 0.5q3 0 6 1q2 0 4 1q2 2 5 4l0.5 0.5t1.5 0.5l42 43q11 -14 14.5 -17.5t17.5 -14.5l-43 -43v0zM828 211q-35 -34 -84 -34t-83.5 34.5
t-34.5 83.5t34 84q40 40 98 34l-47 -47q-12 -12 -12 -29.5t12 -29.5l46 -46q12 -12 29.5 -12t29.5 12l46 46q5 -57 -34 -96z" />
    <glyph glyph-name="bianxingjiance" unicode="&#xe68b;" 
d="M828 728h-633q-32 0 -54.5 -22.5t-22.5 -54.5v-437q0 -31 22.5 -53.5t54.5 -22.5h292v-50h-197q-10 0 -17.5 -7t-7.5 -17.5t7.5 -17.5t17.5 -7h443q10 0 17.5 7t7.5 17.5t-7.5 17.5t-17.5 7h-197v50h292q32 0 54.5 22.5t22.5 53.5v437q0 32 -22.5 54.5t-54.5 22.5v0z
M856 214q0 -11 -8 -19t-20 -8h-633q-12 0 -20 8t-8 19v437q0 12 8 20t20 8h633q12 0 20 -8t8 -20v-437zM374 427q0 -12 8.5 -20.5t20.5 -8.5t20.5 8.5t8.5 20.5t-8.5 20.5t-20.5 8.5t-20.5 -8.5t-8.5 -20.5v0zM484 427q0 -12 8.5 -20.5t20.5 -8.5t20.5 8.5t8.5 20.5
t-8.5 20.5t-20.5 8.5t-20.5 -8.5t-8.5 -20.5v0zM587 427q0 -12 8.5 -20.5t20.5 -8.5t20.5 8.5t8.5 20.5t-8.5 20.5t-20.5 8.5t-20.5 -8.5t-8.5 -20.5v0zM587 427z" />
    <glyph glyph-name="gaojingtuisong" unicode="&#xe600;" 
d="M836 58q2 23 2 47q0 123 -48 235t-129 193t-193 129t-235 48q-24 0 -47 -2v-93q23 2 47 2q104 0 199 -40.5t163.5 -109t109 -163.5t40.5 -199q0 -24 -2 -47h93v0zM605 58q0 114 -56 210.5t-152.5 152.5t-210.5 56v-93q89 0 164 -43.5t118.5 -118.5t43.5 -164h93zM256 58
q29 0 49.5 20.5t20.5 49.5t-20.5 49.5t-49.5 20.5t-49.5 -20.5t-20.5 -49.5t20.5 -49.5t49.5 -20.5v0z" />
    <glyph glyph-name="dtu" unicode="&#xe601;" 
d="M117 779v-790h790v790h-790zM858 38h-692v692h692v-692zM463 186h98v297h149v99h-396v-99h149v-297z" />
    <glyph glyph-name="quanxianguanli" unicode="&#xe622;" 
d="M507 -77q-15 0 -27 7q-25 13 -57 34q-80 53 -150 121q-78 78 -123 154q-44 76 -44 138v413l43 -14q50 -15 97 -15q138 0 247 71l19 12l18 -12q109 -71 248 -71q47 0 96 15l44 14v-413q0 -59 -46 -135q-45 -75 -127 -153q-71 -68 -153 -123q-33 -22 -57 -35q-13 -8 -28 -8
zM173 377q0 -43 36 -104q39 -68 112 -139q66 -64 140 -114q22 -14 46 -28q24 14 48 30q75 50 144 115q76 73 116 140q36 60 36 100v324q-37 -7 -72 -7q-146 0 -266 71q-121 -71 -267 -71q-34 0 -72 7v-324h-1zM505 330q-61 0 -104.5 43.5t-43.5 104.5t43.5 104.5t104.5 43.5
t104.5 -43.5t43.5 -104.5t-43.5 -104.5t-104.5 -43.5zM505 559q-33 0 -57 -23.5t-24 -57t23.5 -57.5t57 -24t57.5 24t24 57.5t-23.5 57t-57.5 23.5zM509 142q-14 0 -24 10t-10 23v172q0 14 10 24t24 10t24 -10t10 -24v-172q0 -14 -10 -23.5t-24 -9.5zM522 238
q-14 0 -23.5 10t-9.5 24t9.5 23.5t23.5 9.5h58q14 0 23.5 -9.5t9.5 -23.5t-9.5 -24t-23.5 -10h-58z" />
    <glyph glyph-name="zhanghao" unicode="&#xe603;" 
d="M872 91v0q0 -12 -10 -20t-24 -8h-652q-14 0 -24 8t-10 20v0v0q0 4 0.5 12t5.5 29.5t13.5 40t27 39t43.5 31.5q29 11 50.5 14t56.5 14l84 34l-5 45q-4 0 -9 2t-19.5 10t-26 18t-22 27.5t-13.5 37.5q-15 -4 -24.5 12.5t-9.5 32.5q0 4 -1.5 14t-2.5 19t0 18t6 13.5t15 3.5
q-11 78 -11 95q1 8 1.5 17.5t1.5 14t7 12.5t18 18q2 3 -0.5 21t0.5 24q1 3 8.5 5t18 2h20.5t19.5 -0.5t11.5 -0.5q43 17 90 17q94 -4 140.5 -43t51.5 -92q0 -51 -12 -90q8 1 12.5 -3.5t6 -13.5t1 -17.5t-1.5 -19.5t-1 -14q0 -16 -9 -32.5t-24 -12.5q-4 -22 -13 -40t-20 -28
t-21.5 -16.5t-17.5 -8.5l-7 -2l-6 -45q17 -6 85 -34q33 -14 55.5 -17t50.5 -17q27 -11 47 -30t29 -38.5t14 -37.5t5 -29l1 -11v0v0zM872 91z" />
    <glyph glyph-name="qiaoliangguanli" unicode="&#xe602;" horiz-adv-x="1682" 
d="M1366 489q-40 1 -74.5 12.5t-73.5 30.5t-61 26v-116h209v-139q-40 1 -115 3.5t-94 2.5v-237h-202v231q-69 0 -137 -7.5t-145 -24t-119 -27.5t-127 -33v-139h-121v98q-14 -6 -41 -17.5t-40 -17.5v52q11 6 38.5 20t42.5 21q-1 16 -3.5 46.5t-2.5 34.5q-12 -13 -35 -38
t-35 -37h-5v23q44 61 63 121t18 157q40 -4 74 -18.5t55.5 -31t52 -34.5t61.5 -26q60 -16 114.5 -5t101.5 38.5t85.5 67t64.5 80.5t40 80q7 21 5 33t-0.5 24.5t12.5 23.5q31 -8 93 -23.5t92 -23.5q3 -31 25 -60.5t54.5 -51t65.5 -37t64 -24.5v-58zM949 639
q-21 -38 -47.5 -69.5t-68 -70.5t-58.5 -57q25 8 51.5 21.5t43 24t45 31t40.5 28.5q-1 18 -3.5 51t-2.5 41zM1157 639v-40q19 -8 58 -23.5t58 -23.5q-18 14 -56.5 43t-59.5 44zM943 506q-84 -73 -235 -98t-281 11v-127q32 10 102 33.5t107 35.5q47 10 154 31.5t165 32.5
q4 65 -12 81zM427 471q1 -4 1 -9.5t0.5 -7.5t0 -5.5t1 -4.5t2 -2.5t3 -3.5t4 -3t6.5 -4q20 -13 62.5 -21t64.5 -2q-28 13 -77 34t-68 29zM300 379q-11 -29 -29 -76q8 7 35 29q-1 10 -6 47z" />
    <glyph glyph-name="jiaoseguanli" unicode="&#xe620;" horiz-adv-x="1171" 
d="M964 327h-282q-24 0 -40.5 17t-16.5 40t16.5 40t40.5 17h282q23 0 40 -17t17 -40t-17 -40t-40 -17zM964 610h-282q-24 0 -40.5 16.5t-16.5 40t16.5 40t40.5 16.5h282q23 0 40 -16.5t17 -40t-17 -40t-40 -16.5zM399 271h-170q-46 0 -79.5 33t-33.5 80v283q0 46 33.5 79.5
t79.5 33.5h170q47 0 80 -33.5t33 -79.5v-283q0 -47 -33 -80t-80 -33zM399 610q0 23 -16.5 40t-40.5 17h-56q-23 0 -40 -17t-17 -40v-169q0 -24 17 -40.5t40 -16.5h56q24 0 40.5 16.5t16.5 40.5v169zM173 101h791q23 0 40 -16.5t17 -39.5t-17 -40t-40 -17h-791q-23 0 -40 17
t-17 40t17 39.5t40 16.5z" />
    <glyph glyph-name="yingbian" unicode="&#xeebc;" 
d="M809 -5h-590q-44 0 -76 32t-32 76v590q0 45 32 77t76 32h590q45 0 77 -32t32 -77v-590q0 -44 -32 -76t-77 -32zM219 768q-31 0 -52.5 -22t-21.5 -53v-590q0 -30 21.5 -52t52.5 -22h590q31 0 53 22t22 52v590q0 31 -22 53t-53 22h-590zM540 176h-34v159l-158 251l29 18
l144 -230l122 229l30 -16l-133 -249v-162z" />
    <glyph glyph-name="huanjingjiance" unicode="&#xe6e3;" 
d="M806 328q41 0 69.5 28.5t28.5 69.5q0 28 -14 51t-38 36q-6 3 -14 5.5t-13 3.5l-5 1q0 59 -41 100t-99 41h-5l-23 -3q-30 53 -82.5 84t-113.5 31q-66 0 -121 -35.5t-82 -93.5l-14 -40q-51 -9 -85 -48t-34 -91q0 -58 41 -99t99 -41h126q12 0 20 8t8 20t-8 20t-20 8h-126
q-35 0 -59.5 24.5t-24.5 59.5t25 59.5t61 25.5q11 0 18.5 6.5t9.5 17.5q9 61 56 102t110 41q50 0 91.5 -27t61.5 -72q1 -1 1 -2q3 -12 14.5 -17t22.5 -1q16 7 33 7q35 0 59.5 -24.5t24.5 -59.5v-10q-1 -4 -2 -15v-2q-2 -14 9 -24t25 -6q5 1 10 1q17 0 29.5 -12.5t12.5 -29.5
t-12.5 -29.5t-29.5 -12.5h-126q-12 0 -20 -8t-8 -20t8 -20t20 -8h126zM526 244q35 0 59.5 24.5t24.5 59.5t-24.5 59.5t-59.5 24.5t-59 -25q-9 -8 -9 -19.5t8.5 -19.5t20 -8t19.5 8t20 8t20 -8t8 -20t-8 -20t-20 -8h-210q-12 0 -20 -8t-8 -20t8 -20t20 -8h210zM652 160
q23 0 39.5 -16.5t16.5 -39.5t-16.5 -39.5t-39.5 -16.5t-39.5 16.5t-16.5 39.5q0 12 -8 20t-20 8t-20 -8t-8 -20q0 -46 33 -79t79 -33t79 33t33 79t-33 79t-79 33h-406q-12 0 -20 -8t-8 -20t8 -20t20 -8h406z" />
    <glyph glyph-name="shujutongji" unicode="&#xe700;" 
d="M93 4q-13 0 -21.5 8.5t-8.5 20.5v707q0 12 8.5 20.5t21 8.5t21 -8.5t8.5 -20.5v-677h806q13 0 21.5 -8.5t8.5 -21t-8.5 -21t-21.5 -8.5h-835v0zM188 163q-10 0 -18 6q-10 7 -11.5 19t5.5 22l193 257q9 12 24 12v0q9 0 16 -5l173 -117l306 244q8 6 18 6q14 0 23 -11
q8 -9 6.5 -21.5t-11.5 -19.5l-322 -257q-8 -6 -18 -6v0q-9 0 -17 5l-168 113l-176 -235q-9 -12 -23 -12z" />
  </font>
</defs>
</svg>
